<svg width="25" height="25" viewBox="0 0 25 25" fill="none" xmlns="http://www.w3.org/2000/svg">
<g clip-path="url(#clip0_15540_279)">
<path d="M2.67188 17.2109C2.48958 17.2214 2.34115 17.1849 2.22656 17.1016C2.11198 17.0182 2.03646 16.8854 2 16.7031C1.79688 15.7969 1.72396 14.9245 1.78125 14.0859C1.83854 13.2422 2.01823 12.4531 2.32031 11.7188C2.6224 10.9844 3.03906 10.3255 3.57031 9.74219C4.10677 9.15885 4.7526 8.66927 5.50781 8.27344C6.26823 7.8724 7.13021 7.59115 8.09375 7.42969C9.35417 7.21094 10.4688 7.15104 11.4375 7.25C12.4115 7.34896 13.2734 7.61979 14.0234 8.0625C14.7786 8.50521 15.4557 9.13542 16.0547 9.95312C16.6589 10.7708 17.224 11.7917 17.75 13.0156C17.4167 13.3229 16.9688 13.6224 16.4062 13.9141C15.849 14.2005 15.2083 14.4766 14.4844 14.7422C13.7604 15.0026 12.987 15.25 12.1641 15.4844C11.3411 15.7188 10.4974 15.9349 9.63281 16.1328C8.77344 16.3255 7.92448 16.4974 7.08594 16.6484C6.2474 16.7943 5.45052 16.9167 4.69531 17.0156C3.94531 17.1094 3.27083 17.1745 2.67188 17.2109ZM6.91406 7.86719L6.83594 7.46094C6.79948 7.2526 6.83854 7.0599 6.95312 6.88281C7.07292 6.70573 7.25521 6.59115 7.5 6.53906L8.07031 6.42188C8.3099 6.36979 8.52604 6.39323 8.71875 6.49219C8.91146 6.59115 9.02604 6.74219 9.0625 6.94531L9.15625 7.46094L6.91406 7.86719ZM19.4375 18.5312C18.6771 18.5312 17.888 18.4167 17.0703 18.1875C16.2526 17.9583 15.4583 17.6771 14.6875 17.3438C13.9167 17.0052 13.2161 16.6797 12.5859 16.3672C13.4714 16.1589 14.3099 15.9141 15.1016 15.6328C15.8932 15.3464 16.6042 15.0286 17.2344 14.6797C17.8698 14.3255 18.3958 13.9453 18.8125 13.5391L22.7578 14.7031C22.9766 14.7656 23.125 14.8906 23.2031 15.0781C23.2812 15.2604 23.2422 15.5443 23.0859 15.9297C22.9714 16.2109 22.8021 16.5026 22.5781 16.8047C22.3542 17.1068 22.0833 17.388 21.7656 17.6484C21.4531 17.9089 21.099 18.1198 20.7031 18.2812C20.3125 18.4479 19.8906 18.5312 19.4375 18.5312Z" fill="white"/>
</g>
<defs>
<clipPath id="clip0_15540_279">
<rect width="25" height="25" fill="white"/>
</clipPath>
</defs>
</svg>
