<svg width="25" height="25" viewBox="0 0 25 25" fill="none" xmlns="http://www.w3.org/2000/svg">
<g clip-path="url(#clip0_15540_271)">
<path d="M3.72656 16.4141C3.41406 16.4141 3.15104 16.3073 2.9375 16.0938C2.72396 15.8802 2.61719 15.6198 2.61719 15.3125V9.40625C2.61719 9.09375 2.72396 8.83073 2.9375 8.61719C3.15104 8.39844 3.41406 8.28906 3.72656 8.28906C4.04427 8.28906 4.3099 8.39844 4.52344 8.61719C4.73698 8.83073 4.84375 9.09375 4.84375 9.40625V15.3125C4.84375 15.6198 4.73698 15.8802 4.52344 16.0938C4.3099 16.3073 4.04427 16.4141 3.72656 16.4141ZM7.4375 18.1406C6.92188 18.1406 6.5 17.9844 6.17188 17.6719C5.84375 17.3594 5.67969 16.9557 5.67969 16.4609V8.26562C5.67969 7.76562 5.84375 7.35938 6.17188 7.04688C6.5 6.73438 6.92188 6.57812 7.4375 6.57812C7.95833 6.57812 8.38281 6.73438 8.71094 7.04688C9.03906 7.35938 9.20312 7.76562 9.20312 8.26562V16.4609C9.20312 16.9557 9.03906 17.3594 8.71094 17.6719C8.38281 17.9844 7.95833 18.1406 7.4375 18.1406ZM10.1094 13.8672V10.8516H14.9609V13.8672H10.1094ZM17.6328 18.1406C17.1172 18.1406 16.6953 17.9844 16.3672 17.6719C16.0391 17.3594 15.875 16.9557 15.875 16.4609V8.26562C15.875 7.76562 16.0391 7.35938 16.3672 7.04688C16.6953 6.73438 17.1172 6.57812 17.6328 6.57812C18.1536 6.57812 18.5781 6.73438 18.9062 7.04688C19.2344 7.35938 19.3984 7.76562 19.3984 8.26562V16.4609C19.3984 16.9557 19.2344 17.3594 18.9062 17.6719C18.5781 17.9844 18.1536 18.1406 17.6328 18.1406ZM21.2656 16.4141C20.9531 16.4141 20.6901 16.3073 20.4766 16.0938C20.263 15.8802 20.1562 15.6198 20.1562 15.3125V9.40625C20.1562 9.09375 20.263 8.83073 20.4766 8.61719C20.6901 8.39844 20.9531 8.28906 21.2656 8.28906C21.5781 8.28906 21.8411 8.39844 22.0547 8.61719C22.2734 8.83073 22.3828 9.09375 22.3828 9.40625V15.3125C22.3828 15.6198 22.2734 15.8802 22.0547 16.0938C21.8411 16.3073 21.5781 16.4141 21.2656 16.4141Z" fill="white"/>
</g>
<defs>
<clipPath id="clip0_15540_271">
<rect width="25" height="25" fill="white"/>
</clipPath>
</defs>
</svg>
