<svg width="25" height="25" viewBox="0 0 25 25" fill="none" xmlns="http://www.w3.org/2000/svg">
<g clip-path="url(#clip0_15540_283)">
<path d="M8.41406 13.2031H12.4922C12.6484 13.2031 12.7786 13.151 12.8828 13.0469C12.987 12.9427 13.0391 12.8125 13.0391 12.6562V7.39062C13.0391 7.23958 12.987 7.11198 12.8828 7.00781C12.7786 6.90365 12.6484 6.85156 12.4922 6.85156C12.3411 6.85156 12.2135 6.90365 12.1094 7.00781C12.0052 7.11198 11.9531 7.23958 11.9531 7.39062V12.1172H8.41406C8.25781 12.1172 8.1276 12.1693 8.02344 12.2734C7.91927 12.3776 7.86719 12.5052 7.86719 12.6562C7.86719 12.8125 7.91927 12.9427 8.02344 13.0469C8.1276 13.151 8.25781 13.2031 8.41406 13.2031ZM12.5 20.3281C11.401 20.3281 10.3698 20.1198 9.40625 19.7031C8.44271 19.2917 7.59635 18.7214 6.86719 17.9922C6.13802 17.2578 5.5651 16.4115 5.14844 15.4531C4.73698 14.4896 4.53125 13.4583 4.53125 12.3594C4.53125 11.2604 4.73698 10.2292 5.14844 9.26562C5.5651 8.30208 6.13802 7.45573 6.86719 6.72656C7.59635 5.9974 8.44271 5.42708 9.40625 5.01562C10.3698 4.59896 11.401 4.39062 12.5 4.39062C13.599 4.39062 14.6302 4.59896 15.5938 5.01562C16.5573 5.42708 17.4036 5.9974 18.1328 6.72656C18.862 7.45573 19.4323 8.30208 19.8438 9.26562C20.2604 10.2292 20.4688 11.2604 20.4688 12.3594C20.4688 13.4583 20.2604 14.4896 19.8438 15.4531C19.4323 16.4115 18.862 17.2578 18.1328 17.9922C17.4036 18.7214 16.5573 19.2917 15.5938 19.7031C14.6302 20.1198 13.599 20.3281 12.5 20.3281Z" fill="white"/>
</g>
<defs>
<clipPath id="clip0_15540_283">
<rect width="25" height="25" fill="white"/>
</clipPath>
</defs>
</svg>
