<svg width="22" height="15" viewBox="0 0 22 15" fill="none" xmlns="http://www.w3.org/2000/svg">
<path d="M7.3125 2.00781C7.11979 2.00781 6.95573 1.94271 6.82031 1.8125C6.6901 1.67708 6.625 1.51302 6.625 1.32031C6.625 1.1224 6.6901 0.958333 6.82031 0.828125C6.95573 0.692708 7.11979 0.625 7.3125 0.625H20.3516C20.5495 0.625 20.7135 0.692708 20.8438 0.828125C20.9792 0.958333 21.0469 1.1224 21.0469 1.32031C21.0469 1.51302 20.9792 1.67708 20.8438 1.8125C20.7135 1.94271 20.5495 2.00781 20.3516 2.00781H7.3125ZM7.3125 8.0625C7.11979 8.0625 6.95573 7.9974 6.82031 7.86719C6.6901 7.73177 6.625 7.5651 6.625 7.36719C6.625 7.17448 6.6901 7.01302 6.82031 6.88281C6.95573 6.7474 7.11979 6.67969 7.3125 6.67969H20.3516C20.5495 6.67969 20.7135 6.7474 20.8438 6.88281C20.9792 7.01302 21.0469 7.17448 21.0469 7.36719C21.0469 7.5651 20.9792 7.73177 20.8438 7.86719C20.7135 7.9974 20.5495 8.0625 20.3516 8.0625H7.3125ZM7.3125 14.1094C7.11979 14.1094 6.95573 14.0417 6.82031 13.9062C6.6901 13.776 6.625 13.6146 6.625 13.4219C6.625 13.224 6.6901 13.0599 6.82031 12.9297C6.95573 12.7943 7.11979 12.7266 7.3125 12.7266H20.3516C20.5495 12.7266 20.7135 12.7943 20.8438 12.9297C20.9792 13.0599 21.0469 13.224 21.0469 13.4219C21.0469 13.6146 20.9792 13.776 20.8438 13.9062C20.7135 14.0417 20.5495 14.1094 20.3516 14.1094H7.3125ZM1.875 2.24219C1.61979 2.24219 1.40104 2.15104 1.21875 1.96875C1.04167 1.78646 0.953125 1.57031 0.953125 1.32031C0.953125 1.0599 1.04167 0.841146 1.21875 0.664062C1.40104 0.486979 1.61979 0.398438 1.875 0.398438H3.54688C3.80208 0.398438 4.02083 0.486979 4.20312 0.664062C4.38542 0.841146 4.47656 1.0599 4.47656 1.32031C4.47656 1.57031 4.38542 1.78646 4.20312 1.96875C4.02083 2.15104 3.80208 2.24219 3.54688 2.24219H1.875ZM1.875 8.28906C1.61979 8.28906 1.40104 8.20052 1.21875 8.02344C1.04167 7.84115 0.953125 7.6224 0.953125 7.36719C0.953125 7.11198 1.04167 6.89583 1.21875 6.71875C1.40104 6.53646 1.61979 6.44531 1.875 6.44531H3.54688C3.80208 6.44531 4.02083 6.53646 4.20312 6.71875C4.38542 6.89583 4.47656 7.11198 4.47656 7.36719C4.47656 7.6224 4.38542 7.84115 4.20312 8.02344C4.02083 8.20052 3.80208 8.28906 3.54688 8.28906H1.875ZM1.875 14.3438C1.61979 14.3438 1.40104 14.2526 1.21875 14.0703C1.04167 13.888 0.953125 13.6719 0.953125 13.4219C0.953125 13.1667 1.04167 12.9505 1.21875 12.7734C1.40104 12.5911 1.61979 12.5 1.875 12.5H3.54688C3.80208 12.5 4.02083 12.5911 4.20312 12.7734C4.38542 12.9505 4.47656 13.1667 4.47656 13.4219C4.47656 13.6719 4.38542 13.888 4.20312 14.0703C4.02083 14.2526 3.80208 14.3438 3.54688 14.3438H1.875Z" fill="#212121"/>
</svg>
