<svg width="24" height="18" viewBox="0 0 24 18" fill="none" xmlns="http://www.w3.org/2000/svg">
<path d="M4.29688 14.7969H6.76562C7.0625 14.7969 7.30208 14.7083 7.48438 14.5312C7.66667 14.349 7.75781 14.1146 7.75781 13.8281V11.9609C7.75781 11.6797 7.66667 11.4479 7.48438 11.2656C7.30208 11.0833 7.0625 10.9922 6.76562 10.9922H4.29688C4 10.9922 3.76042 11.0833 3.57812 11.2656C3.39583 11.4479 3.30469 11.6797 3.30469 11.9609V13.8281C3.30469 14.1146 3.39583 14.349 3.57812 14.5312C3.76042 14.7083 4 14.7969 4.29688 14.7969ZM0.234375 7.05469H23.7578V4.78906H0.234375V7.05469ZM3.27344 17.8672C2.26823 17.8672 1.51042 17.6146 1 17.1094C0.489583 16.6042 0.234375 15.8516 0.234375 14.8516V3.89844C0.234375 2.89844 0.489583 2.14583 1 1.64062C1.51042 1.13542 2.26823 0.882812 3.27344 0.882812H20.7109C21.7214 0.882812 22.4818 1.13802 22.9922 1.64844C23.5026 2.15365 23.7578 2.90365 23.7578 3.89844V14.8516C23.7578 15.8464 23.5026 16.5964 22.9922 17.1016C22.4818 17.612 21.7214 17.8672 20.7109 17.8672H3.27344Z" fill="#212121"/>
</svg>
