<svg width="25" height="25" viewBox="0 0 25 25" fill="none" xmlns="http://www.w3.org/2000/svg">
<g clip-path="url(#clip0_15540_275)">
<path d="M9.5625 6.72656C9.5625 6.1849 9.69271 5.69271 9.95312 5.25C10.2188 4.80208 10.5729 4.44531 11.0156 4.17969C11.4583 3.91406 11.9505 3.78125 12.4922 3.78125C13.0391 3.78125 13.5339 3.91406 13.9766 4.17969C14.4193 4.44531 14.7708 4.80208 15.0312 5.25C15.2969 5.69271 15.4297 6.1849 15.4297 6.72656C15.4297 7.1849 15.3333 7.60938 15.1406 8C14.9479 8.39062 14.6849 8.72396 14.3516 9C14.0182 9.27604 13.6406 9.46615 13.2188 9.57031V16.8203C13.2188 17.3984 13.1953 17.9089 13.1484 18.3516C13.1016 18.7943 13.0417 19.1667 12.9688 19.4688C12.901 19.7708 12.8229 19.9974 12.7344 20.1484C12.651 20.3047 12.5703 20.3828 12.4922 20.3828C12.4141 20.3828 12.3333 20.3047 12.25 20.1484C12.1667 19.9922 12.0885 19.763 12.0156 19.4609C11.9427 19.1589 11.8828 18.7865 11.8359 18.3438C11.7891 17.9062 11.7656 17.3984 11.7656 16.8203V9.57031C11.3438 9.46615 10.9661 9.27604 10.6328 9C10.2995 8.72396 10.0365 8.39062 9.84375 8C9.65625 7.60938 9.5625 7.1849 9.5625 6.72656ZM11.6484 6.88281C11.9245 6.88281 12.1615 6.78385 12.3594 6.58594C12.5573 6.38281 12.6562 6.14583 12.6562 5.875C12.6562 5.60417 12.5573 5.36979 12.3594 5.17188C12.1615 4.97396 11.9245 4.875 11.6484 4.875C11.3828 4.875 11.1484 4.97396 10.9453 5.17188C10.7474 5.36979 10.6484 5.60417 10.6484 5.875C10.6484 6.14583 10.7474 6.38281 10.9453 6.58594C11.1484 6.78385 11.3828 6.88281 11.6484 6.88281Z" fill="white"/>
</g>
<defs>
<clipPath id="clip0_15540_275">
<rect width="25" height="25" fill="white"/>
</clipPath>
</defs>
</svg>
