<svg width="26" height="15" viewBox="0 0 26 15" fill="none" xmlns="http://www.w3.org/2000/svg">
<path d="M2.16406 12.4609C1.90885 12.4609 1.67708 12.401 1.46875 12.2812C1.26562 12.1615 1.10417 12 0.984375 11.7969C0.864583 11.5938 0.804688 11.3672 0.804688 11.1172V3.60156C0.804688 3.22135 0.934896 2.90104 1.19531 2.64062C1.46094 2.375 1.78385 2.24219 2.16406 2.24219C2.54948 2.24219 2.8724 2.375 3.13281 2.64062C3.39844 2.90104 3.53125 3.22135 3.53125 3.60156V11.1172C3.53125 11.4922 3.39844 11.8099 3.13281 12.0703C2.8724 12.3307 2.54948 12.4609 2.16406 12.4609ZM6.71094 14.6406C6.28385 14.6406 5.90625 14.5521 5.57812 14.375C5.25521 14.2031 5 13.9635 4.8125 13.6562C4.63021 13.349 4.53906 12.9974 4.53906 12.6016V2.125C4.53906 1.72396 4.63021 1.36979 4.8125 1.0625C5 0.75 5.25521 0.507812 5.57812 0.335938C5.90625 0.158854 6.28385 0.0703125 6.71094 0.0703125C7.13802 0.0703125 7.51302 0.158854 7.83594 0.335938C8.16406 0.507812 8.41927 0.75 8.60156 1.0625C8.78906 1.36979 8.88281 1.72396 8.88281 2.125V12.6016C8.88281 12.9974 8.78906 13.349 8.60156 13.6562C8.41927 13.9635 8.16406 14.2031 7.83594 14.375C7.51302 14.5521 7.13802 14.6406 6.71094 14.6406ZM9.97656 9.26562V5.45312H16.1094V9.26562H9.97656ZM19.3672 14.6406C18.9401 14.6406 18.5625 14.5521 18.2344 14.375C17.9115 14.2031 17.6562 13.9635 17.4688 13.6562C17.2865 13.349 17.1953 12.9974 17.1953 12.6016V2.125C17.1953 1.72396 17.2865 1.36979 17.4688 1.0625C17.6562 0.75 17.9115 0.507812 18.2344 0.335938C18.5625 0.158854 18.9401 0.0703125 19.3672 0.0703125C19.7943 0.0703125 20.1693 0.158854 20.4922 0.335938C20.8203 0.507812 21.0755 0.75 21.2578 1.0625C21.4453 1.36979 21.5391 1.72396 21.5391 2.125V12.6016C21.5391 12.9974 21.4453 13.349 21.2578 13.6562C21.0755 13.9635 20.8203 14.2031 20.4922 14.375C20.1693 14.5521 19.7943 14.6406 19.3672 14.6406ZM23.8359 12.4609C23.4505 12.4609 23.125 12.3307 22.8594 12.0703C22.599 11.8099 22.4688 11.4922 22.4688 11.1172V3.60156C22.4688 3.22135 22.599 2.90104 22.8594 2.64062C23.125 2.375 23.4505 2.24219 23.8359 2.24219C24.2161 2.24219 24.5365 2.375 24.7969 2.64062C25.0625 2.90104 25.1953 3.22135 25.1953 3.60156V11.1172C25.1953 11.3672 25.1354 11.5938 25.0156 11.7969C24.8958 12 24.7318 12.1615 24.5234 12.2812C24.3203 12.401 24.0911 12.4609 23.8359 12.4609Z" fill="#212121"/>
</svg>
